<svg width="16" height="16" viewBox="0 0 16 16" fill="none" xmlns="http://www.w3.org/2000/svg">
<g clip-path="url(#clip0_4667_173)">
<path d="M11.7419 10.3443C12.7102 9.02294 13.1438 7.38474 12.9562 5.7574C12.7685 4.13006 11.9733 2.63359 10.7296 1.56738C9.48597 0.501174 7.88561 -0.0561434 6.24869 0.0069298C4.61178 0.0700029 3.05904 0.748815 1.90113 1.90756C0.743212 3.06631 0.0655107 4.61953 0.00360894 6.25649C-0.0582929 7.89344 0.500169 9.49341 1.56727 10.7363C2.63437 11.9792 4.1314 12.7733 5.75888 12.9598C7.38635 13.1464 9.02424 12.7115 10.3449 11.7423H10.3439C10.3732 11.7823 10.4059 11.8206 10.4419 11.8573L14.2919 15.7073C14.4794 15.8949 14.7337 16.0004 14.999 16.0005C15.2643 16.0005 15.5187 15.8953 15.7064 15.7078C15.894 15.5202 15.9995 15.2659 15.9996 15.0006C15.9997 14.7353 15.8944 14.4809 15.7069 14.2933L11.8569 10.4433C11.8211 10.407 11.7827 10.3746 11.7419 10.3443ZM11.9999 6.50025C11.9999 7.22252 11.8576 7.93772 11.5812 8.60501C11.3048 9.2723 10.8997 9.87862 10.3889 10.3893C9.87822 10.9001 9.27191 11.3052 8.60462 11.5816C7.93733 11.858 7.22213 12.0003 6.49986 12.0003C5.77759 12.0003 5.06239 11.858 4.3951 11.5816C3.72781 11.3052 3.12149 10.9001 2.61077 10.3893C2.10005 9.87862 1.69492 9.2723 1.41852 8.60501C1.14212 7.93772 0.99986 7.22252 0.99986 6.50025C0.99986 5.04156 1.57932 3.64262 2.61077 2.61117C3.64222 1.57972 5.04117 1.00025 6.49986 1.00025C7.95855 1.00025 9.3575 1.57972 10.3889 2.61117C11.4204 3.64262 11.9999 5.04156 11.9999 6.50025Z" fill="white"/>
</g>
<defs>
<clipPath id="clip0_4667_173">
<rect width="16" height="16" fill="white"/>
</clipPath>
</defs>
</svg>
